<svg width="117" height="22" viewBox="0 0 117 22" fill="none" xmlns="http://www.w3.org/2000/svg">
  <path
    d="M12.524 5.096H4.684V9.744H12.3V13.44H4.684V21H0.82V1.4H12.524V5.096ZM24.6915 7H28.3035V21H24.6915V19.432C23.8142 20.7387 22.4235 21.392 20.5195 21.392C18.9889 21.392 17.7195 20.8787 16.7115 19.852C15.7222 18.8253 15.2275 17.4067 15.2275 15.596V7H18.8395V15.148C18.8395 16.0813 19.0915 16.8 19.5955 17.304C20.0995 17.7893 20.7715 18.032 21.6115 18.032C22.5449 18.032 23.2915 17.7427 23.8515 17.164C24.4115 16.5853 24.6915 15.7173 24.6915 14.56V7ZM35.5037 9.408C35.8397 8.512 36.3904 7.84 37.1557 7.392C37.9397 6.944 38.8077 6.72 39.7597 6.72V10.752C38.6584 10.6213 37.669 10.8453 36.7917 11.424C35.933 12.0027 35.5037 12.964 35.5037 14.308V21H31.8917V7H35.5037V9.408ZM49.9362 6.608C51.4668 6.608 52.7268 7.12133 53.7162 8.148C54.7242 9.17467 55.2282 10.5933 55.2282 12.404V21H51.6162V12.852C51.6162 11.9187 51.3642 11.2093 50.8602 10.724C50.3562 10.22 49.6842 9.968 48.8442 9.968C47.9108 9.968 47.1642 10.2573 46.6042 10.836C46.0442 11.4147 45.7642 12.2827 45.7642 13.44V21H42.1522V7H45.7642V8.568C46.6415 7.26133 48.0322 6.608 49.9362 6.608ZM60.3843 5.32C59.787 5.32 59.2643 5.10533 58.8163 4.676C58.387 4.228 58.1723 3.70533 58.1723 3.108C58.1723 2.51067 58.387 1.988 58.8163 1.54C59.2643 1.092 59.787 0.867999 60.3843 0.867999C61.0003 0.867999 61.523 1.092 61.9523 1.54C62.4003 1.988 62.6243 2.51067 62.6243 3.108C62.6243 3.70533 62.4003 4.228 61.9523 4.676C61.523 5.10533 61.0003 5.32 60.3843 5.32ZM58.5923 21V7H62.2043V21H58.5923ZM73.7983 10.472H70.6343V16.296C70.6343 16.7813 70.7556 17.136 70.9983 17.36C71.2409 17.584 71.5956 17.7147 72.0623 17.752C72.529 17.7707 73.1076 17.7613 73.7983 17.724V21C71.3156 21.28 69.5609 21.0467 68.5343 20.3C67.5263 19.5533 67.0223 18.2187 67.0223 16.296V10.472H64.5863V7H67.0223V4.172L70.6343 3.08V7H73.7983V10.472ZM86.0837 7H89.6957V21H86.0837V19.432C85.2064 20.7387 83.8157 21.392 81.9117 21.392C80.3811 21.392 79.1117 20.8787 78.1037 19.852C77.1144 18.8253 76.6197 17.4067 76.6197 15.596V7H80.2317V15.148C80.2317 16.0813 80.4837 16.8 80.9877 17.304C81.4917 17.7893 82.1637 18.032 83.0037 18.032C83.9371 18.032 84.6837 17.7427 85.2437 17.164C85.8037 16.5853 86.0837 15.7173 86.0837 14.56V7ZM96.8959 9.408C97.2319 8.512 97.7825 7.84 98.5479 7.392C99.3319 6.944 100.2 6.72 101.152 6.72V10.752C100.051 10.6213 99.0612 10.8453 98.1839 11.424C97.3252 12.0027 96.8959 12.964 96.8959 14.308V21H93.2839V7H96.8959V9.408ZM106.077 15.484C106.562 17.2387 107.878 18.116 110.025 18.116C111.406 18.116 112.451 17.6493 113.161 16.716L116.073 18.396C114.691 20.3933 112.657 21.392 109.969 21.392C107.654 21.392 105.797 20.692 104.397 19.292C102.997 17.892 102.297 16.128 102.297 14C102.297 11.8907 102.987 10.136 104.369 8.736C105.75 7.31733 107.523 6.608 109.689 6.608C111.742 6.608 113.431 7.31733 114.757 8.736C116.101 10.1547 116.773 11.9093 116.773 14C116.773 14.4667 116.726 14.9613 116.633 15.484H106.077ZM106.021 12.684H113.161C112.955 11.732 112.526 11.0227 111.873 10.556C111.238 10.0893 110.51 9.856 109.689 9.856C108.718 9.856 107.915 10.108 107.281 10.612C106.646 11.0973 106.226 11.788 106.021 12.684Z"
    fill="white" />
</svg>